<svg xmlns="http://www.w3.org/2000/svg" viewBox="0 0 512 512">
  <defs>
    <linearGradient id="body" x1="161" y1="62" x2="365" y2="466" gradientUnits="userSpaceOnUse">
      <stop offset="0" stop-color="#ffffff"/>
      <stop offset=".62" stop-color="#fbfcfc"/>
      <stop offset="1" stop-color="#d9e2e5"/>
    </linearGradient>
    <linearGradient id="side" x1="271" y1="117" x2="386" y2="438" gradientUnits="userSpaceOnUse">
      <stop offset="0" stop-color="#ffffff" stop-opacity="0"/>
      <stop offset="1" stop-color="#c8d2d6" stop-opacity=".75"/>
    </linearGradient>
  </defs>
  <g stroke="#394348" stroke-width="18" stroke-linejoin="round" stroke-linecap="round">
    <path fill="url(#body)" d="M285 88c0 22-13 39-29 39s-29-17-29-39 13-39 29-39 29 17 29 39Z"/>
    <path fill="url(#body)" d="M245 115c-71 77-113 161-86 236 15 42 54 61 97 61s82-19 97-61c24-68-8-143-69-216l-39 129h53V152l-13-37Z"/>
    <path fill="url(#body)" d="M110 461c4-51 45-76 95-76h102c50 0 91 25 95 76v19H110v-19Z"/>
    <path fill="none" d="M149 390c64-16 150-16 214 0"/>
  </g>
  <path fill="url(#side)" d="M276 136c72 91 69 181 19 272 43-7 75-28 87-66 21-64-12-138-98-227l-8 21Z"/>
</svg>
